<svg xmlns="http://www.w3.org/2000/svg" viewBox="0 0 111.32 130.33"><defs><style>.cls-1{fill:#f08865;}</style></defs><g id="Layer_2" data-name="Layer 2"><g id="Layer_1-2" data-name="Layer 1"><path class="cls-1" d="M61.89.11A65.17,65.17,0,0,0,48.33,128.17a59.14,59.14,0,0,0,15.15,2.13,63.72,63.72,0,0,0,30.7-6.73c5.9-2.94,12.48-7.54,13.89-9.71a12.22,12.22,0,0,0,2.24-8.18c-.17-3.72-1.22-6.91-4.34-13.21-3.32-6.67-7.7-12.37-11.06-14.4-3-1.78-5.42-2.4-9.57-2.38-6.25,0-10.88,1.65-14,4.92-2.6,2.71-3.71,5.67-3.71,9.94a23.33,23.33,0,0,0,1.28,7.66c1.3,4.27,1.52,6.67.89,9.66-.71,3.47-2.27,5.09-5.28,5.57a8.44,8.44,0,0,1-6.82-1.91c-1.72-1.63-2.42-3.38-2.56-6.41s.26-4.88,2.14-8.89C58.78,93,59,92.12,59,89.32a11.79,11.79,0,0,0-1.21-5.95,6.38,6.38,0,0,0-7.7-3.85c-3.74.77-6.23,2.5-10.74,7.4A17.19,17.19,0,0,1,34,91.26c-4.69,2.26-9.17,1.46-11.45-2.08-2-3.08-1.56-6.05,1.33-9A16.37,16.37,0,0,1,32,75.76c5.27-1.19,6-1.4,7.76-2.24a20.66,20.66,0,0,0,6-4.23c1.89-1.89,2.49-2.94,2.59-4.68A3.65,3.65,0,0,0,47.82,62a15.43,15.43,0,0,0-7-6.35,35.86,35.86,0,0,0-4.72-1.47c-5.45-1.37-7.55-2.38-9.84-4.8a12.37,12.37,0,0,1-2.82-5A8,8,0,0,1,23.73,40,6.11,6.11,0,0,1,30,36.44a17.78,17.78,0,0,1,7.9,3.15,21.42,21.42,0,0,1,4.28,4.46c3.84,5.09,7.72,7.37,12.74,7.44a4.66,4.66,0,0,0,2.66-.37c1.46-.72,2.28-1.92,3-4.44a26.17,26.17,0,0,0,1-8.19,28.06,28.06,0,0,0-1-8.3,13,13,0,0,1-.45-4.37,10.83,10.83,0,0,1,3.32-7.68A5.77,5.77,0,0,1,68.37,16c3.39,0,5.42,1.29,6.52,4.23.32.88.37,1.37.37,4.06,0,3.91-.23,4.87-2.34,9.28-2.33,4.84-2.91,7.28-2.45,10.34.8,5.51,4.18,10.67,8.31,12.69a16,16,0,0,0,7.52,1.71,20.43,20.43,0,0,0,3.5-.23A14.56,14.56,0,0,0,97.15,54a114.89,114.89,0,0,0,7.9-11.83,67.74,67.74,0,0,0,5.79-13.46,14.45,14.45,0,0,0,.07-7.1c-.65-2.44-1.42-3.64-3.8-6-4.62-4.57-12.84-9.38-20.54-12A66.88,66.88,0,0,0,61.89.11Z"/></g></g></svg>